<?xml version="1.0" standalone="no"?>
<!DOCTYPE svg PUBLIC "-//W3C//DTD SVG 20010904//EN"
 "http://www.w3.org/TR/2001/REC-SVG-20010904/DTD/svg10.dtd">
<svg version="1.0" xmlns="http://www.w3.org/2000/svg"
 width="300.000000pt" height="118.000000pt" viewBox="0 0 300.000000 118.000000"
 preserveAspectRatio="xMidYMid meet">
<metadata>
Created by potrace 1.10, written by Peter Selinger 2001-2011
</metadata>
<g transform="translate(0.000000,118.000000) scale(0.100000,-0.100000)"
fill="#000000" stroke="none">
<path d="M1142 986 c-79 -26 -159 -100 -198 -184 -33 -72 -35 -170 -4 -251 26
-70 98 -155 145 -172 19 -7 35 -16 35 -19 0 -3 23 -12 50 -19 53 -14 144 -7
168 11 6 6 12 7 12 2 0 -12 29 29 30 42 0 7 -20 32 -44 57 -40 40 -50 45 -88
44 -133 -1 -216 128 -159 247 75 154 307 110 324 -61 3 -28 3 -54 -1 -57 -3
-4 -41 28 -83 70 -97 96 -109 93 -109 -28 l0 -80 154 -154 c85 -85 158 -154
163 -154 23 0 33 28 33 99 0 62 -4 79 -20 96 -20 22 -20 24 -4 66 24 62 29 64
31 14 5 -104 72 -191 167 -217 41 -11 54 -10 94 4 30 11 50 14 56 8 16 -16 89
-12 114 6 20 14 24 14 38 0 18 -18 94 -22 111 -5 8 8 17 8 31 0 27 -14 328
-15 337 -1 4 6 10 8 15 5 12 -7 20 21 20 74 0 65 -19 81 -94 81 l-58 0 51 63
c29 34 65 78 81 97 24 28 30 45 30 81 0 30 -6 51 -15 59 -11 10 -62 13 -179
14 -146 1 -164 -1 -181 -18 -18 -17 -19 -17 -32 0 -11 15 -10 21 2 40 21 33
20 107 -3 127 -22 20 -102 23 -120 5 -18 -18 -15 -123 3 -138 14 -12 14 -15
-1 -32 -16 -17 -18 -17 -37 -1 -12 12 -35 18 -64 18 -67 0 -73 -14 -73 -162 0
-118 -1 -125 -24 -148 -26 -26 -52 -26 -92 0 -23 15 -24 20 -24 146 0 151 -5
161 -75 163 -52 0 -85 -24 -86 -63 0 -20 -5 -14 -20 26 -26 67 -93 141 -160
178 -64 34 -176 44 -247 21z m195 -31 c59 -17 133 -78 167 -138 50 -85 51
-202 3 -293 -16 -31 -16 -32 13 -59 27 -26 30 -35 30 -92 0 -35 -2 -63 -5 -63
-3 0 -73 66 -155 147 l-150 148 0 67 c0 38 2 68 4 68 2 0 41 -38 87 -85 45
-47 86 -85 90 -85 3 0 12 21 18 46 25 99 -20 189 -118 239 -51 26 -138 17
-190 -19 -49 -34 -91 -113 -91 -170 1 -93 72 -177 165 -196 28 -6 58 -8 66 -5
17 6 97 -71 85 -82 -4 -5 -51 -8 -104 -8 -113 0 -152 15 -220 83 -60 59 -85
120 -86 207 -2 211 186 351 391 290z m813 -45 l0 -50 -50 0 -50 0 0 50 0 50
50 0 50 0 0 -50z m-152 -327 l-3 -206 -48 -1 c-38 -1 -47 2 -47 16 0 16 -3 15
-35 -4 -47 -27 -137 -22 -182 10 -59 42 -77 99 -81 255 l-4 137 51 0 51 0 0
-119 c0 -138 7 -163 52 -191 41 -25 83 -20 118 15 24 24 25 32 28 163 l3 137
50 -3 49 -4 -2 -205z m152 5 l0 -213 -50 3 -50 4 0 203 0 204 48 4 c26 2 48 4
50 5 1 1 2 -94 2 -210z m400 171 c0 -24 -22 -57 -100 -154 -55 -67 -100 -126
-100 -130 0 -4 43 -6 95 -3 l95 4 0 -48 0 -48 -175 0 -175 0 0 30 c0 22 24 59
100 154 55 69 100 126 100 128 0 2 -40 1 -90 0 l-90 -4 0 51 0 51 170 0 170 0
0 -31z m-285 -98 c28 -2 52 -5 54 -7 4 -3 -46 -70 -108 -144 l-30 -35 -3 112
c-3 111 -3 112 17 94 12 -11 39 -19 70 -20z"/>
<path d="M180 910 c-41 -27 -80 -49 -87 -49 -23 -2 -35 -71 -30 -164 5 -89 6
-93 38 -119 18 -16 39 -28 46 -28 7 0 13 -3 13 -7 0 -5 18 -17 41 -27 22 -11
43 -24 46 -30 4 -5 5 -53 4 -106 -2 -77 1 -99 13 -109 9 -7 13 -18 9 -25 -3
-6 -3 -8 1 -4 5 4 25 -3 45 -16 20 -12 51 -28 69 -35 17 -8 32 -17 32 -21 0
-7 22 -16 58 -25 7 -2 18 2 25 8 19 18 134 87 145 87 24 0 39 62 38 156 l-1
95 64 32 c35 17 76 42 92 56 29 25 29 26 29 143 l0 117 -32 23 c-50 35 -69 46
-110 64 -21 9 -38 20 -38 25 0 21 -91 -5 -110 -30 -3 -4 -26 -17 -52 -29 -25
-12 -49 -26 -53 -32 -4 -6 -16 -3 -33 8 -66 44 -160 92 -175 91 -7 0 -46 -23
-87 -49z m193 -24 c48 -28 87 -52 87 -56 0 -3 -39 -28 -87 -55 l-88 -50 -3
-115 -3 -115 92 -53 c50 -28 96 -52 103 -51 6 0 49 24 96 53 l85 52 3 117 c1
69 -1 117 -7 117 -5 0 -44 20 -85 45 -42 25 -81 45 -87 45 -21 0 3 19 90 69
l91 52 94 -53 95 -53 0 -115 1 -115 -95 -53 -95 -53 0 -112 0 -112 -58 -32
c-31 -18 -73 -42 -93 -54 l-37 -22 -96 53 -96 54 0 107 0 108 -32 24 c-18 13
-61 39 -96 58 l-63 34 3 114 3 115 90 53 c50 29 92 52 95 50 3 -1 44 -24 93
-51z m158 -117 c15 -10 32 -19 38 -19 6 0 11 -3 11 -8 0 -4 13 -13 28 -19 l28
-13 -1 -101 c-2 -109 1 -104 -70 -138 -11 -5 -37 -20 -57 -34 l-37 -25 -83 47
-83 48 -1 96 c-1 109 -6 101 90 159 66 40 89 41 137 7z"/>
<path d="M1040 243 c-42 -15 -53 -75 -21 -114 18 -22 21 -22 71 -11 32 7 56 9
59 3 3 -5 20 -7 36 -4 17 3 46 4 65 3 45 -3 236 -3 275 0 17 1 69 0 117 -3
103 -6 120 2 121 59 l0 39 20 -46 20 -47 83 2 c48 0 85 -3 87 -9 3 -7 14 -6
34 1 19 7 36 8 47 2 9 -5 16 -5 16 0 0 9 67 7 113 -4 15 -4 33 -1 41 5 10 8
16 9 21 1 4 -6 12 -7 22 -1 9 5 28 6 42 2 24 -6 60 -6 261 -1 36 0 120 -1 188
-3 81 -2 125 0 132 7 10 12 8 102 -3 112 -10 10 -83 12 -148 5 -32 -4 -66 -3
-75 2 -12 7 -19 5 -26 -7 -8 -14 -12 -15 -25 -4 -22 18 -43 19 -50 2 -5 -13
-8 -13 -28 0 -20 13 -23 12 -35 -5 -10 -14 -16 -15 -22 -6 -7 12 -33 14 -163
17 -114 3 -145 1 -163 -9 -13 -7 -22 -7 -29 0 -15 15 -84 18 -112 5 -16 -7
-26 -7 -28 -1 -3 10 -132 11 -158 1 -8 -3 -17 -1 -20 4 -4 6 -13 7 -24 1 -9
-5 -23 -6 -30 -1 -8 4 -43 6 -80 3 -84 -6 -124 -5 -186 1 -42 5 -53 2 -64 -13
-13 -18 -14 -18 -34 2 l-21 21 -14 -22 c-12 -18 -16 -19 -28 -7 -10 9 -33 13
-79 10 -36 -1 -65 1 -65 6 0 5 -11 4 -24 -1 -13 -5 -26 -7 -27 -6 -9 7 -75 14
-89 9z m48 -31 c3 -9 -3 -13 -19 -10 -19 2 -25 -2 -27 -19 -3 -19 1 -23 22
-23 28 0 35 -17 12 -26 -21 -8 -53 12 -62 38 -5 16 -1 27 16 40 26 21 51 20
58 0z m32 -2 c0 -27 26 -26 33 1 9 33 27 12 27 -31 0 -43 -18 -64 -27 -31 -7
27 -33 28 -33 1 0 -11 -4 -20 -10 -20 -5 0 -10 23 -10 50 0 28 5 50 10 50 6 0
10 -9 10 -20z m143 -32 c10 -22 12 -40 6 -43 -5 -4 -12 1 -15 9 -8 21 -31 20
-43 -1 -16 -29 -25 -6 -11 29 27 68 37 69 63 6z m47 12 c0 -33 3 -40 20 -40
11 0 20 -5 20 -11 0 -7 -10 -9 -27 -4 -34 8 -31 3 -33 45 -3 46 -2 50 10 50 6
0 10 -18 10 -40z m70 -1 c0 -32 3 -40 15 -36 8 4 17 2 20 -2 7 -12 -21 -22
-40 -15 -17 7 -22 94 -5 94 6 0 10 -18 10 -41z m161 10 l19 -24 0 28 c0 16 5
27 11 25 6 -2 10 -7 10 -11 -1 -4 -1 -26 -1 -49 l-1 -43 -24 28 c-30 33 -34
34 -28 3 5 -22 2 -24 -23 -21 -16 2 -39 4 -51 4 -20 1 -23 6 -23 47 l0 45 46
-4 c34 -2 51 -10 65 -28z m113 25 c23 -9 19 -21 -6 -20 -27 1 -38 -38 -14 -47
19 -7 21 4 4 21 -9 9 -7 12 10 12 17 0 22 -6 22 -24 0 -28 -24 -40 -51 -26
-25 14 -26 65 -1 79 21 13 17 12 36 5z m96 -4 c0 -5 -9 -10 -19 -10 -11 0 -23
-4 -26 -10 -4 -6 5 -10 20 -10 15 0 24 -4 20 -10 -3 -5 -15 -10 -26 -10 -11 0
-17 -4 -14 -10 3 -5 15 -10 26 -10 10 0 19 -5 19 -11 0 -6 -7 -8 -16 -5 -9 3
-23 6 -32 6 -13 0 -17 9 -16 38 1 20 2 39 3 42 2 11 61 10 61 0z m60 -10 c11
-21 11 -21 31 2 18 20 20 21 13 3 -4 -11 -9 -35 -12 -52 -5 -36 -19 -44 -28
-15 -5 14 -19 48 -32 75 -9 17 18 5 28 -13z m111 10 c36 -20 17 -90 -25 -90
-12 0 -36 33 -36 50 0 17 24 50 36 50 3 0 14 -5 25 -10z m59 -25 c0 -46 27
-49 32 -2 4 38 20 34 23 -5 3 -37 -26 -63 -54 -48 -16 8 -21 20 -21 50 0 22 5
40 10 40 6 0 10 -16 10 -35z m142 11 c4 -5 3 -15 -2 -21 -5 -6 -7 -21 -3 -33
7 -28 -4 -28 -28 1 l-18 22 -1 -22 c0 -13 -4 -23 -10 -23 -15 0 -12 87 3 93
16 7 50 -3 59 -17z m111 -19 c6 -38 -12 -56 -48 -49 -21 4 -25 10 -25 42 0 29
5 40 18 42 33 7 50 -4 55 -35z m73 35 c10 -6 15 -92 6 -92 -2 0 -12 10 -23 23
l-18 22 -1 -22 c0 -13 -4 -23 -10 -23 -5 0 -10 20 -10 44 0 43 3 47 40 55 3 0
10 -3 16 -7z m52 -48 c-4 -51 -21 -46 -20 6 1 55 1 55 13 43 6 -6 9 -28 7 -49z
m32 20 c0 -27 5 -37 20 -41 28 -8 15 -21 -15 -15 -22 4 -25 9 -25 48 0 24 5
44 10 44 6 0 10 -16 10 -36z m70 -4 c0 -36 3 -40 25 -40 23 0 25 4 25 40 0 22
5 40 10 40 6 0 10 -22 10 -48 0 -45 -2 -48 -22 -46 -13 1 -33 3 -45 3 -20 1
-23 6 -23 46 0 25 5 45 10 45 6 0 10 -18 10 -40z m150 15 c5 -14 13 -38 16
-53 7 -26 6 -27 -13 -9 -24 21 -43 22 -43 2 0 -8 -5 -15 -11 -15 -11 0 -8 26
11 75 12 32 28 32 40 0z m90 -2 c0 15 5 27 10 27 6 0 10 -24 10 -52 l-1 -53
-22 28 c-26 31 -34 34 -33 10 1 -10 -3 -19 -9 -20 -10 -3 -16 64 -7 81 3 5 16
-4 29 -20 l23 -29 0 28z m108 9 c2 -8 -5 -11 -20 -10 -17 2 -24 -3 -26 -19 -3
-19 1 -23 22 -23 28 0 35 -17 12 -26 -26 -10 -56 15 -56 46 0 41 56 68 68 32z
m77 8 c4 -6 -5 -10 -19 -10 -14 0 -26 -4 -26 -10 0 -5 9 -10 20 -10 11 0 20
-4 20 -10 0 -5 -9 -10 -20 -10 -11 0 -20 -5 -20 -11 0 -5 8 -9 18 -7 9 1 18
-2 20 -7 1 -6 -11 -10 -28 -10 -29 0 -30 2 -30 45 0 43 2 46 29 48 16 1 32 -2
36 -8z"/>
<path d="M1226 191 c-4 -7 -5 -15 -2 -18 9 -9 19 4 14 18 -4 11 -6 11 -12 0z"/>
<path d="M1450 200 c0 -5 9 -10 20 -10 11 0 20 -4 20 -10 0 -5 -9 -10 -20 -10
-11 0 -20 -4 -20 -10 0 -16 47 -11 54 6 13 33 6 44 -24 44 -16 0 -30 -4 -30
-10z"/>
<path d="M1893 203 c-22 -8 -15 -43 7 -43 13 0 20 7 20 19 0 22 -9 30 -27 24z"/>
<path d="M2070 195 c0 -8 7 -15 15 -15 8 0 15 7 15 15 0 8 -7 15 -15 15 -8 0
-15 -7 -15 -15z"/>
<path d="M2180 200 c0 -5 7 -10 15 -10 8 0 15 5 15 10 0 6 -7 10 -15 10 -8 0
-15 -4 -15 -10z"/>
<path d="M2180 160 c0 -5 6 -10 14 -10 8 0 18 5 21 10 3 6 -3 10 -14 10 -12 0
-21 -4 -21 -10z"/>
<path d="M2270 195 c0 -8 7 -15 15 -15 8 0 15 7 15 15 0 8 -7 15 -15 15 -8 0
-15 -7 -15 -15z"/>
<path d="M2580 186 c0 -9 5 -16 10 -16 6 0 10 4 10 9 0 6 -4 13 -10 16 -5 3
-10 -1 -10 -9z"/>
</g>
</svg>
